<?xml version="1.0" encoding="utf-8"?>
<!-- Generator: Adobe Illustrator 16.0.0, SVG Export Plug-In . SVG Version: 6.00 Build 0)  -->
<!DOCTYPE svg PUBLIC "-//W3C//DTD SVG 1.1//EN" "http://www.w3.org/Graphics/SVG/1.1/DTD/svg11.dtd">
<svg version="1.1" id="Layer_1" xmlns="http://www.w3.org/2000/svg" xmlns:xlink="http://www.w3.org/1999/xlink" x="0px" y="0px"
	 width="50px" height="43px" viewBox="0 0 50 43" enable-background="new 0 0 50 43" xml:space="preserve">
<path fill="none" stroke="#ECDB14" stroke-width="2" stroke-miterlimit="10" d="M35.267,21.646c1.103-1.104,1.784-2.629,1.784-4.312
	c0-3.371-2.732-6.104-6.104-6.104c-2.711,0-5.006,1.768-5.802,4.212c-0.797-2.444-3.091-4.212-5.802-4.212
	c-3.371,0-6.104,2.732-6.104,6.104c0,0.634,0.1,1.294,0.296,1.896c0.192,0.589,0.477,1.152,0.844,1.652
	c0.448,0.609,1.011,1.127,1.559,1.646c0.397,0.376,0.783,0.764,1.18,1.141c0.445,0.423,0.88,0.855,1.324,1.28
	c0.486,0.464,0.962,0.934,1.447,1.397c0.488,0.468,0.97,0.941,1.458,1.409c0.454,0.436,0.904,0.875,1.357,1.311
	c0.383,0.368,0.763,0.739,1.146,1.107c0.274,0.264,0.548,0.53,0.822,0.794c0.129,0.124,0.255,0.25,0.386,0.372
	c0,0.001,0.016,0.016,0.016,0.015C25.072,31.354,35.258,21.654,35.267,21.646z"/>
</svg>
